<svg width="256" height="256" xmlns="http://www.w3.org/2000/svg" version="1.1" enable-background="new 0 0 256 256" xml:space="preserve">
 <g id="Layer_1">
  <title>Layer 1</title>
  <g stroke="null">
   <g stroke="null" transform="matrix(18.3767 0 0 18.3767 -747.553 -746.69)">
    <path stroke="null" fill="#083042" d="m47.69059,51.68809c-0.00529,0.0001 -0.0106,0.0006 -0.0158,0.0006c-0.145,0.0012 -0.29,-0.035 -0.42,-0.108l-2.95,-1.67c-0.173,-0.0976 -0.281,-0.28 -0.283,-0.479l-0.00005,-3.39c-0.00145,-0.145 0.0272,-0.284 0.0859,-0.407l-2.31,-1.29c-0.0972,0.203 -0.145,0.434 -0.142,0.673l0.00008,5.6c0.00319,0.328 0.181,0.63 0.467,0.791l4.87,2.75c0.215,0.121 0.455,0.181 0.693,0.179l0.00006,-0.004c0.00545,-0.349 0.00374,-1.76 0.00203,-2.64l0.00278,-0.0056z"/>
    <path stroke="null" fill="#3ddc84" d="m44.10059,45.59809c0.0633,-0.132 0.161,-0.245 0.295,-0.324l2.78,-1.64c0.259,-0.153 0.579,-0.156 0.841,-0.00807l2.81,1.59c0.125,0.0708 0.235,0.171 0.315,0.289c0.0003,0.00047 0.0006,0.00096 0.0009,0.00142l2.27,-1.36c-0.133,-0.195 -0.314,-0.36 -0.52,-0.477l-4.64,-2.62c-0.432,-0.244 -0.961,-0.239 -1.39,0.0133l-4.59,2.71c-0.221,0.13 -0.383,0.317 -0.487,0.535l2.31,1.29c0.00009,-0.00017 0.00015,-0.00036 0.00024,-0.00053l0.00486,0.00088z"/>
    <path stroke="null" fill="#4285f4" d="m53.45059,44.14809l-2.27,1.36c0.087,0.128 0.14,0.277 0.142,0.433l0,3.23c0.0027,0.301 -0.155,0.579 -0.413,0.732l-2.78,1.64c-0.125,0.0739 -0.264,0.112 -0.405,0.116c0.00171,0.886 0.00343,2.29 -0.00202,2.64l-0.00005,0.004c0.24,-0.002 0.48,-0.0656 0.694,-0.192l4.59,-2.71c0.427,-0.252 0.687,-0.712 0.682,-1.21l0.0001,-5.33c-0.0025,-0.258 -0.0905,-0.505 -0.235,-0.717l-0.00303,0.004z"/>
    <path stroke="null" fill="#d6f0ff" d="m45.26059,46.27809c-0.0232,0.0552 -0.0386,0.114 -0.0446,0.176c-0.00228,0.0237 -0.0033,0.0478 -0.00306,0.0721l0.00003,2.27c0.00018,0.0166 0.00144,0.0331 0.00376,0.0494c0.00697,0.0487 0.0234,0.0951 0.048,0.137c0.0164,0.0277 0.0363,0.0534 0.0594,0.0761c0.0231,0.0228 0.0494,0.0427 0.0785,0.059l1.98,1.12c0.0873,0.0493 0.185,0.0736 0.282,0.0728c0.00703,-0.0001 0.014,-0.0005 0.0211,-0.0009c0.0904,-0.004 0.18,-0.0294 0.261,-0.0771l1.86,-1.1c0.0108,-0.00639 0.0214,-0.0131 0.0317,-0.0202c0.0206,-0.0141 0.0401,-0.0294 0.0584,-0.0458c0.0275,-0.0247 0.0523,-0.0518 0.0742,-0.0811c0.0147,-0.0195 0.028,-0.0399 0.0399,-0.0611c0.0079,-0.0138 0.0149,-0.0281 0.0215,-0.0426c0.0072,-0.0158 0.0137,-0.0318 0.0195,-0.0482c0.002,-0.00572 0.0039,-0.0115 0.0057,-0.0172c0.0175,-0.0556 0.0267,-0.114 0.0262,-0.174l0,-2.16c-0.0004,-0.0393 -0.0056,-0.078 -0.0152,-0.116c-0.0063,-0.025 -0.0146,-0.0496 -0.0245,-0.0734c-0.005,-0.0119 -0.0104,-0.0237 -0.0162,-0.0353c-0.0068,-0.0136 -0.0144,-0.0269 -0.0223,-0.04c-0.0055,-0.00917 -0.0112,-0.0183 -0.0172,-0.0272c-0.0135,-0.0198 -0.0282,-0.0389 -0.0439,-0.0571c-0.0474,-0.0546 -0.104,-0.101 -0.168,-0.137l-1.88,-1.06c-0.0329,-0.0186 -0.0671,-0.0336 -0.102,-0.045c-0.0468,-0.0153 -0.0952,-0.0243 -0.144,-0.027c-0.0122,-0.00068 -0.0243,-0.00096 -0.0365,-0.00084c-0.0133,0.00012 -0.0267,0.00083 -0.04,0.0019c-0.0328,0.00265 -0.0655,0.00827 -0.0976,0.0167c-0.006,0.00157 -0.012,0.00331 -0.0179,0.00509c-0.0434,0.0129 -0.0856,0.031 -0.126,0.0546l-1.86,1.1c-0.056,0.0331 -0.103,0.0751 -0.14,0.124c-0.015,0.0194 -0.0285,0.0398 -0.0406,0.0611c-0.00603,0.0107 -0.0117,0.0215 -0.017,0.0326c-0.00386,0.00807 -0.00662,0.0167 -0.0101,0.025l-0.00423,-0.00635z"/>
    <path stroke="null" fill="#083042" d="m47.69059,50.28809c-0.00702,0.0004 -0.014,0.0008 -0.0211,0.0009c-0.097,0.0008 -0.194,-0.0235 -0.282,-0.0728l-1.98,-1.12c-0.029,-0.0164 -0.0553,-0.0363 -0.0785,-0.059c-0.0231,-0.0228 -0.0431,-0.0484 -0.0594,-0.0761c-0.0245,-0.0416 -0.041,-0.088 -0.048,-0.137c-0.00232,-0.0162 -0.00359,-0.0327 -0.00376,-0.0494l-0.00003,-2.27c-0.00023,-0.0243 0.00079,-0.0484 0.00306,-0.0721c0.00596,-0.0619 0.0214,-0.121 0.0446,-0.176l-0.534,-0.329l-0.626,-0.35c-0.0587,0.123 -0.0873,0.262 -0.0859,0.407l0.00005,3.39c0.00194,0.199 0.11,0.382 0.283,0.479l2.95,1.67c0.13,0.0735 0.275,0.11 0.42,0.108c0.00528,0 0.0106,-0.0005 0.0158,-0.0006c-0.00084,-0.432 -0.00167,-0.74 -0.00167,-0.74l0.00385,-0.6029z"/>
    <path stroke="null" fill="#041619" d="m47.69059,50.28809c-0.00702,0.0004 -0.014,0.0008 -0.0211,0.0009c-0.097,0.0008 -0.194,-0.0235 -0.282,-0.0728l-1.98,-1.12c-0.029,-0.0164 -0.0553,-0.0363 -0.0785,-0.059c-0.0231,-0.0228 -0.0431,-0.0484 -0.0594,-0.0761c-0.0245,-0.0416 -0.041,-0.088 -0.048,-0.137c-0.00232,-0.0162 -0.00359,-0.0327 -0.00376,-0.0494l-0.00003,-2.27c-0.00023,-0.0243 0.00079,-0.0484 0.00306,-0.0721c0.00596,-0.0619 0.0214,-0.121 0.0446,-0.176l-0.534,-0.329l-0.626,-0.35c-0.0587,0.123 -0.0873,0.262 -0.0859,0.407l0.00005,3.39c0.00194,0.199 0.11,0.382 0.283,0.479l2.95,1.67c0.13,0.0735 0.275,0.11 0.42,0.108c0.00528,0 0.0106,-0.0005 0.0158,-0.0006c-0.00084,-0.432 -0.00167,-0.74 -0.00167,-0.74l0.00385,-0.6029z"/>
    <path stroke="null" fill="#3ddb85" d="m50.85059,45.21809l-2.81,-1.59c-0.262,-0.148 -0.582,-0.145 -0.841,0.00807l-2.78,1.64c-0.134,0.079 -0.232,0.192 -0.295,0.324c-0.00008,0.00017 -0.00014,0.00036 -0.00023,0.00054l0.626,0.35l0.534,0.329c0.00348,-0.00829 0.00625,-0.0169 0.0101,-0.025c0.0053,-0.0111 0.011,-0.022 0.017,-0.0326c0.0121,-0.0213 0.0256,-0.0418 0.0406,-0.0612c0.0375,-0.0485 0.0842,-0.0904 0.14,-0.124l1.86,-1.1c0.04,-0.0236 0.0822,-0.0416 0.126,-0.0546c0.00595,-0.00177 0.0119,-0.00351 0.0179,-0.00508c0.0321,-0.00842 0.0647,-0.014 0.0976,-0.0167c0.0133,-0.00108 0.0266,-0.00178 0.04,-0.0019c0.0122,-0.00012 0.0243,0.00017 0.0365,0.00083c0.0486,0.00269 0.0969,0.0117 0.144,0.027c0.0351,0.0115 0.0694,0.0265 0.102,0.045l1.88,1.06c0.063,0.0356 0.12,0.0822 0.167,0.137c0.0158,0.0182 0.0305,0.0372 0.0439,0.0571c0.0061,0.00887 0.0117,0.018 0.0173,0.0272l0.48,-0.321l0.655,-0.391c-0.0003,-0.00047 -0.0006,-0.00096 -0.0009,-0.00142c-0.0803,-0.118 -0.19,-0.218 -0.315,-0.289l0.00723,0.00776z"/>
    <path stroke="null" fill="#37bf6e" d="m50.85059,45.21809l-2.81,-1.59c-0.262,-0.148 -0.582,-0.145 -0.841,0.00807l-2.78,1.64c-0.134,0.079 -0.232,0.192 -0.295,0.324c-0.00008,0.00017 -0.00014,0.00036 -0.00023,0.00054l0.626,0.35l0.534,0.329c0.00348,-0.00829 0.00625,-0.0169 0.0101,-0.025c0.0053,-0.0111 0.011,-0.022 0.017,-0.0326c0.0121,-0.0213 0.0256,-0.0418 0.0406,-0.0612c0.0375,-0.0485 0.0842,-0.0904 0.14,-0.124l1.86,-1.1c0.04,-0.0236 0.0822,-0.0416 0.126,-0.0546c0.00595,-0.00177 0.0119,-0.00351 0.0179,-0.00508c0.0321,-0.00842 0.0647,-0.014 0.0976,-0.0167c0.0133,-0.00108 0.0266,-0.00178 0.04,-0.0019c0.0122,-0.00012 0.0243,0.00017 0.0365,0.00083c0.0486,0.00269 0.0969,0.0117 0.144,0.027c0.0351,0.0115 0.0694,0.0265 0.102,0.045l1.88,1.06c0.063,0.0356 0.12,0.0822 0.167,0.137c0.0158,0.0182 0.0305,0.0372 0.0439,0.0571c0.0061,0.00887 0.0117,0.018 0.0173,0.0272l0.48,-0.321l0.655,-0.391c-0.0003,-0.00047 -0.0006,-0.00096 -0.0009,-0.00142c-0.0803,-0.118 -0.19,-0.218 -0.315,-0.289l0.00723,0.00776z"/>
    <path stroke="null" fill="#4285f4" d="m50.05059,46.21809c0.0079,0.0131 0.0154,0.0264 0.0223,0.04c0.0058,0.0116 0.0112,0.0234 0.0161,0.0353c0.01,0.0239 0.0182,0.0484 0.0246,0.0734c0.0095,0.0375 0.0148,0.0762 0.0152,0.116l-0.0001,2.16c0.0006,0.0601 -0.0086,0.119 -0.0261,0.174c-0.0019,0.00579 -0.0038,0.0115 -0.0058,0.0173c-0.0057,0.0164 -0.0123,0.0325 -0.0195,0.0482c-0.0066,0.0145 -0.0136,0.0287 -0.0214,0.0426c-0.012,0.0212 -0.0253,0.0416 -0.0399,0.0611c-0.0219,0.0292 -0.0468,0.0564 -0.0743,0.0811c-0.0183,0.0164 -0.0378,0.0318 -0.0583,0.0458c-0.0103,0.00704 -0.0209,0.0138 -0.0317,0.0202l-1.86,1.1c-0.0807,0.0477 -0.17,0.073 -0.261,0.0771l0.00009,0.601s0.00083,0.308 0.00167,0.74c0.14,-0.0038 0.28,-0.0419 0.405,-0.116l2.78,-1.64c0.258,-0.153 0.416,-0.431 0.413,-0.732l0.0001,-3.23c-0.0016,-0.156 -0.0545,-0.305 -0.142,-0.433l-0.655,0.391l-0.48296,0.3269z"/>
    <path stroke="null" fill="#3870b2" d="m50.05059,46.21809c0.0079,0.0131 0.0154,0.0264 0.0223,0.04c0.0058,0.0116 0.0112,0.0234 0.0161,0.0353c0.01,0.0239 0.0182,0.0484 0.0246,0.0734c0.0095,0.0375 0.0148,0.0762 0.0152,0.116l-0.0001,2.16c0.0006,0.0601 -0.0086,0.119 -0.0261,0.174c-0.0019,0.00579 -0.0038,0.0115 -0.0058,0.0173c-0.0057,0.0164 -0.0123,0.0325 -0.0195,0.0482c-0.0066,0.0145 -0.0136,0.0287 -0.0214,0.0426c-0.012,0.0212 -0.0253,0.0416 -0.0399,0.0611c-0.0219,0.0292 -0.0468,0.0564 -0.0743,0.0811c-0.0183,0.0164 -0.0378,0.0318 -0.0583,0.0458c-0.0103,0.00704 -0.0209,0.0138 -0.0317,0.0202l-1.86,1.1c-0.0807,0.0477 -0.17,0.073 -0.261,0.0771l0.00009,0.601s0.00083,0.308 0.00167,0.74c0.14,-0.0038 0.28,-0.0419 0.405,-0.116l2.78,-1.64c0.258,-0.153 0.416,-0.431 0.413,-0.732l0.0001,-3.23c-0.0016,-0.156 -0.0545,-0.305 -0.142,-0.433l-0.655,0.391l-0.48296,0.3269z"/>
   </g>
  </g>
  <ellipse stroke-width="0" ry="41.5" rx="41.5" id="svg_1" cy="209" cx="201.5" stroke="#000" fill="#fff"/>
  <g stroke="null">
   <path stroke="null" p-id="9325" fill="#272636" d="m181.24178,196.01149c0,0 4.10671,-6.85772 10.59748,-10.53677c6.49523,-3.67906 14.49107,-2.62109 19.73428,0.94598c5.24767,3.56707 7.0147,6.57893 7.0147,6.57893l4.51958,-2.78789c0,0 0.93228,-0.5004 0.93228,0.66956l0,17.50646c0,0 0,1.5608 -1.09214,1.00079c-0.91455,-0.46698 -10.84166,-6.57893 -13.96721,-8.50663c-1.7137,-0.8292 -0.20865,-1.50355 -0.20865,-1.50355l4.36419,-2.6997c0,0 -2.49064,-3.37408 -6.13115,-5.16117c-3.89356,-2.19694 -7.543,-2.45905 -12.00931,-0.63145c-2.91681,1.19142 -6.34868,4.24378 -8.81712,8.74728l-4.93693,-3.62184l0,0zm40.51632,23.13469c0,0 -4.10668,6.85535 -10.59741,10.53673c-6.4908,3.67908 -14.4911,2.61877 -19.7343,-0.94834c-5.24767,-3.56703 -7.01466,-6.57893 -7.01466,-6.57893l-4.51958,2.78791c0,0 -0.93231,0.5004 -0.93231,-0.6672l0,-17.50888c0,0 0,-1.55837 1.09214,-1.00079c0.91457,0.46705 10.84166,6.57896 13.96719,8.50663c1.7137,0.8292 0.20865,1.50599 0.20865,1.50599l-4.36419,2.69734c0,0 2.49064,3.37404 6.13115,5.16117c3.89362,2.19694 7.543,2.45905 12.00931,0.63142c2.91681,-1.19142 6.34868,-4.24138 8.81712,-8.74732l4.93689,3.62427l0,0z"/>
  </g>
 </g>

</svg>